<?xml version="1.0" standalone="no"?>
<!DOCTYPE svg PUBLIC "-//W3C//DTD SVG 20010904//EN"
 "http://www.w3.org/TR/2001/REC-SVG-20010904/DTD/svg10.dtd">
<svg version="1.0" xmlns="http://www.w3.org/2000/svg"
 width="512.000000pt" height="512.000000pt" viewBox="0 0 512.000000 512.000000"
 preserveAspectRatio="xMidYMid meet">
<metadata>
Created by potrace 1.14, written by Peter Selinger 2001-2017
</metadata>
<g transform="translate(0.000000,512.000000) scale(0.100000,-0.100000)"
fill="#000000" stroke="none">
<path d="M853 4178 c-53 -25 -99 -76 -112 -125 -16 -56 -15 -2478 0 -2524 27
-81 95 -137 176 -144 26 -2 350 -4 718 -5 l670 0 1 -154 c0 -146 2 -155 26
-197 29 -49 66 -80 116 -97 24 -8 273 -12 896 -12 971 0 926 -4 991 73 19 22
40 57 45 76 6 23 10 419 10 1072 l0 1036 -36 39 c-21 21 -109 115 -198 208
-89 94 -191 202 -228 240 l-67 71 -576 5 c-414 4 -578 8 -583 16 -4 7 -81 89
-172 184 -91 95 -183 191 -204 214 l-39 41 -696 2 c-684 2 -697 2 -738 -19z
m1353 -333 c0 -218 2 -248 18 -263 15 -15 43 -17 249 -17 l232 -1 2 -292 1
-292 -274 0 -274 0 0 120 c0 107 -2 122 -20 140 -36 36 -15 49 -373 -228 -226
-175 -261 -209 -249 -240 2 -8 102 -89 221 -181 325 -252 351 -271 367 -271 8
0 23 9 34 20 18 18 20 33 20 140 l0 120 80 0 c44 1 118 1 165 1 47 0 135 0
195 -1 l110 0 0 -40 0 -40 -42 0 c-258 -2 -338 -6 -350 -18 -9 -9 -13 -56 -13
-169 0 -138 2 -160 17 -175 16 -16 39 -18 203 -18 l184 0 -2 -295 -2 -295 -28
-27 -27 -28 -863 -3 c-636 -2 -869 1 -890 9 -60 25 -57 -46 -57 1295 0 1329
-3 1250 52 1281 18 9 170 12 668 13 l645 0 1 -245z m171 98 c112 -118 209
-220 232 -246 l24 -26 -159 2 -159 2 -1 163 c0 89 1 162 4 162 2 0 29 -26 59
-57z m1403 -556 c0 -194 3 -247 14 -263 13 -18 29 -19 245 -20 127 0 233 -3
236 -6 3 -3 5 -451 5 -997 0 -1078 2 -1033 -55 -1059 -19 -9 -240 -12 -885
-12 l-860 0 -32 29 -33 29 -2 146 -3 146 108 1 c133 1 147 3 201 37 31 18 53
43 70 76 l26 50 0 298 0 298 73 0 72 0 0 -118 c0 -188 22 -199 173 -85 56 43
104 80 107 84 3 3 30 24 60 47 52 38 119 89 206 157 82 63 105 91 96 117 -11
30 -533 438 -579 452 -15 5 -28 1 -42 -13 -19 -19 -21 -33 -21 -140 l0 -119
-32 -3 c-18 -2 -51 -2 -73 1 l-40 5 0 553 0 552 482 0 483 0 0 -243z m342 -83
c43 -45 78 -84 78 -88 0 -3 -70 -6 -155 -6 l-155 0 0 168 0 167 77 -80 c42
-44 112 -117 155 -161z m-2055 -416 c15 -17 41 -18 328 -18 l312 0 1 -80 1
-80 -313 0 c-279 0 -315 -2 -327 -16 -9 -11 -16 -53 -19 -110 l-5 -93 -175
135 c-96 74 -183 143 -192 152 -16 16 -5 26 175 164 l192 147 3 -92 c2 -67 7
-96 19 -109z m1217 -418 c96 -74 175 -137 175 -140 0 -3 -86 -71 -192 -153
l-192 -147 -3 92 c-2 68 -7 97 -19 110 -15 17 -41 18 -328 18 l-312 0 -1 80
-1 80 311 0 c276 0 314 2 330 17 15 13 18 32 18 111 0 92 1 94 20 81 11 -8 98
-75 194 -149z"/>
<path d="M1081 3241 c-22 -22 -18 -58 7 -78 12 -10 85 -13 287 -13 251 0 273
1 288 18 21 23 21 41 1 70 -15 22 -17 22 -290 22 -257 0 -275 -1 -293 -19z"/>
<path d="M1104 2842 c-42 -6 -51 -85 -11 -98 33 -11 279 -12 304 -1 12 5 24
20 27 33 6 24 -11 63 -29 65 -25 3 -272 4 -291 1z"/>
<path d="M1088 2418 c-25 -21 -29 -57 -8 -78 17 -17 40 -18 283 -18 274 0 308
4 315 41 2 10 -4 29 -12 42 l-16 25 -273 0 c-204 0 -277 -3 -289 -12z"/>
<path d="M3459 2779 c-23 -23 -24 -38 -3 -67 15 -22 17 -22 288 -22 297 0 309
2 309 55 0 52 -12 54 -305 53 -252 0 -271 -1 -289 -19z"/>
<path d="M3721 2376 c-11 -4 -22 -17 -24 -28 -6 -23 11 -67 27 -69 61 -7 283
-2 299 6 31 15 39 50 19 75 -17 20 -28 22 -160 24 -78 0 -150 -3 -161 -8z"/>
<path d="M3453 1944 c-15 -24 -15 -29 -2 -53 l15 -26 274 -2 c300 -3 313 -1
313 53 0 52 -13 54 -310 54 l-273 0 -17 -26z"/>
</g>
</svg>
